<mxfile host="app.diagrams.net" modified="2021-05-18T18:24:02.511Z" agent="5.0 (X11; Linux x86_64) AppleWebKit/537.36 (KHTML, like Gecko) Chrome/91.0.4472.57 Safari/537.36 Edg/91.0.864.27" etag="0hZ-tHLO1JVNGg1n9Uln" version="14.6.13" type="github">
  <diagram id="wbUrWV88NQnN1DrHN1Fw" name="Page-1">
    <mxGraphModel dx="2201" dy="731" grid="1" gridSize="10" guides="1" tooltips="1" connect="1" arrows="1" fold="1" page="1" pageScale="1" pageWidth="827" pageHeight="1169" math="0" shadow="0">
      <root>
        <mxCell id="0" />
        <mxCell id="1" parent="0" />
        <mxCell id="GYPpSZBRfct1Y0kYMT_Y-1" value="ID" style="rounded=0;whiteSpace=wrap;html=1;fontStyle=4" parent="1" vertex="1">
          <mxGeometry x="160" y="250" width="80" height="30" as="geometry" />
        </mxCell>
        <mxCell id="GYPpSZBRfct1Y0kYMT_Y-2" value="Club" style="rounded=0;whiteSpace=wrap;html=1;" parent="1" vertex="1">
          <mxGeometry x="240" y="250" width="80" height="30" as="geometry" />
        </mxCell>
        <mxCell id="GYPpSZBRfct1Y0kYMT_Y-3" value="&lt;b&gt;PLAYER&lt;/b&gt;" style="rounded=0;whiteSpace=wrap;html=1;" parent="1" vertex="1">
          <mxGeometry x="-80" y="250" width="120" height="30" as="geometry" />
        </mxCell>
        <mxCell id="GYPpSZBRfct1Y0kYMT_Y-7" value="ID" style="rounded=0;whiteSpace=wrap;html=1;fontStyle=4" parent="1" vertex="1">
          <mxGeometry x="160" y="410" width="80" height="30" as="geometry" />
        </mxCell>
        <mxCell id="GYPpSZBRfct1Y0kYMT_Y-8" value="Name" style="rounded=0;whiteSpace=wrap;html=1;fontStyle=0" parent="1" vertex="1">
          <mxGeometry x="240" y="410" width="80" height="30" as="geometry" />
        </mxCell>
        <mxCell id="GYPpSZBRfct1Y0kYMT_Y-9" value="MID" style="rounded=0;whiteSpace=wrap;html=1;fontStyle=4" parent="1" vertex="1">
          <mxGeometry x="240" y="570" width="80" height="30" as="geometry" />
        </mxCell>
        <mxCell id="GYPpSZBRfct1Y0kYMT_Y-17" value="TEAM" style="rounded=0;whiteSpace=wrap;html=1;fontStyle=1" parent="1" vertex="1">
          <mxGeometry x="-80" y="410" width="120" height="30" as="geometry" />
        </mxCell>
        <mxCell id="GYPpSZBRfct1Y0kYMT_Y-18" value="MATCH" style="rounded=0;whiteSpace=wrap;html=1;fontStyle=1" parent="1" vertex="1">
          <mxGeometry x="-80" y="570" width="120" height="30" as="geometry" />
        </mxCell>
        <mxCell id="GYPpSZBRfct1Y0kYMT_Y-31" value="Position" style="rounded=0;whiteSpace=wrap;html=1;" parent="1" vertex="1">
          <mxGeometry x="320" y="250" width="80" height="30" as="geometry" />
        </mxCell>
        <mxCell id="GYPpSZBRfct1Y0kYMT_Y-32" value="&lt;span&gt;ShirtNumber&lt;/span&gt;" style="rounded=0;whiteSpace=wrap;html=1;" parent="1" vertex="1">
          <mxGeometry x="400" y="250" width="80" height="30" as="geometry" />
        </mxCell>
        <mxCell id="GYPpSZBRfct1Y0kYMT_Y-36" value="Password" style="rounded=0;whiteSpace=wrap;html=1;" parent="1" vertex="1">
          <mxGeometry x="480" y="170" width="80" height="30" as="geometry" />
        </mxCell>
        <mxCell id="GYPpSZBRfct1Y0kYMT_Y-46" value="&lt;span class=&quot;fontstyle0&quot;&gt;&lt;b&gt;&lt;font style=&quot;font-size: 16px&quot;&gt;SOCCER MANAGEMENT SYSTEM RELATIONAL SCHEMA&lt;/font&gt;&lt;/b&gt;&lt;/span&gt;" style="text;html=1;strokeColor=none;fillColor=none;align=center;verticalAlign=middle;whiteSpace=wrap;rounded=0;" parent="1" vertex="1">
          <mxGeometry x="60" y="110" width="530" height="40" as="geometry" />
        </mxCell>
        <mxCell id="GYPpSZBRfct1Y0kYMT_Y-47" value="USER" style="rounded=0;whiteSpace=wrap;html=1;fontStyle=1" parent="1" vertex="1">
          <mxGeometry x="-80" y="170" width="120" height="30" as="geometry" />
        </mxCell>
        <mxCell id="GYPpSZBRfct1Y0kYMT_Y-48" value="Name" style="rounded=0;whiteSpace=wrap;html=1;fontStyle=0" parent="1" vertex="1">
          <mxGeometry x="240" y="170" width="80" height="30" as="geometry" />
        </mxCell>
        <mxCell id="GYPpSZBRfct1Y0kYMT_Y-49" value="&lt;span&gt;ID&lt;/span&gt;" style="rounded=0;whiteSpace=wrap;html=1;fontStyle=4" parent="1" vertex="1">
          <mxGeometry x="160" y="170" width="80" height="30" as="geometry" />
        </mxCell>
        <mxCell id="GYPpSZBRfct1Y0kYMT_Y-51" value="DOB" style="rounded=0;whiteSpace=wrap;html=1;" parent="1" vertex="1">
          <mxGeometry x="320" y="170" width="80" height="30" as="geometry" />
        </mxCell>
        <mxCell id="GYPpSZBRfct1Y0kYMT_Y-52" value="Address" style="rounded=0;whiteSpace=wrap;html=1;" parent="1" vertex="1">
          <mxGeometry x="400" y="170" width="80" height="30" as="geometry" />
        </mxCell>
        <mxCell id="GYPpSZBRfct1Y0kYMT_Y-55" value="ID" style="rounded=0;whiteSpace=wrap;html=1;fontStyle=4" parent="1" vertex="1">
          <mxGeometry x="160" y="330" width="80" height="30" as="geometry" />
        </mxCell>
        <mxCell id="GYPpSZBRfct1Y0kYMT_Y-56" value="Nationality" style="rounded=0;whiteSpace=wrap;html=1;" parent="1" vertex="1">
          <mxGeometry x="240" y="330" width="80" height="30" as="geometry" />
        </mxCell>
        <mxCell id="GYPpSZBRfct1Y0kYMT_Y-57" value="&lt;b&gt;COACH TEAM&lt;/b&gt;" style="rounded=0;whiteSpace=wrap;html=1;" parent="1" vertex="1">
          <mxGeometry x="-80" y="330" width="120" height="30" as="geometry" />
        </mxCell>
        <mxCell id="GYPpSZBRfct1Y0kYMT_Y-58" value="Position" style="rounded=0;whiteSpace=wrap;html=1;" parent="1" vertex="1">
          <mxGeometry x="320" y="330" width="80" height="30" as="geometry" />
        </mxCell>
        <mxCell id="GYPpSZBRfct1Y0kYMT_Y-65" value="Win" style="rounded=0;whiteSpace=wrap;html=1;" parent="1" vertex="1">
          <mxGeometry x="400" y="410" width="80" height="30" as="geometry" />
        </mxCell>
        <mxCell id="GYPpSZBRfct1Y0kYMT_Y-66" value="Draw" style="rounded=0;whiteSpace=wrap;html=1;" parent="1" vertex="1">
          <mxGeometry x="480" y="410" width="80" height="30" as="geometry" />
        </mxCell>
        <mxCell id="GYPpSZBRfct1Y0kYMT_Y-67" value="Achievement" style="rounded=0;whiteSpace=wrap;html=1;" parent="1" vertex="1">
          <mxGeometry x="320" y="410" width="80" height="30" as="geometry" />
        </mxCell>
        <mxCell id="GYPpSZBRfct1Y0kYMT_Y-68" value="Loss" style="rounded=0;whiteSpace=wrap;html=1;" parent="1" vertex="1">
          <mxGeometry x="560" y="410" width="80" height="30" as="geometry" />
        </mxCell>
        <mxCell id="GYPpSZBRfct1Y0kYMT_Y-69" value="Name" style="rounded=0;whiteSpace=wrap;html=1;" parent="1" vertex="1">
          <mxGeometry x="240" y="489.5" width="80" height="30" as="geometry" />
        </mxCell>
        <mxCell id="GYPpSZBRfct1Y0kYMT_Y-70" value="Days" style="rounded=0;whiteSpace=wrap;html=1;" parent="1" vertex="1">
          <mxGeometry x="320" y="489.5" width="80" height="30" as="geometry" />
        </mxCell>
        <mxCell id="GYPpSZBRfct1Y0kYMT_Y-72" value="LEAGUE" style="rounded=0;whiteSpace=wrap;html=1;fontStyle=1" parent="1" vertex="1">
          <mxGeometry x="-80" y="489.5" width="120" height="30" as="geometry" />
        </mxCell>
        <mxCell id="GYPpSZBRfct1Y0kYMT_Y-73" value="ID" style="rounded=0;whiteSpace=wrap;html=1;fontStyle=4" parent="1" vertex="1">
          <mxGeometry x="160" y="489.5" width="80" height="30" as="geometry" />
        </mxCell>
        <mxCell id="GYPpSZBRfct1Y0kYMT_Y-75" value="Name" style="rounded=0;whiteSpace=wrap;html=1;" parent="1" vertex="1">
          <mxGeometry x="320" y="570" width="80" height="30" as="geometry" />
        </mxCell>
        <mxCell id="GYPpSZBRfct1Y0kYMT_Y-76" value="Stadium" style="rounded=0;whiteSpace=wrap;html=1;" parent="1" vertex="1">
          <mxGeometry x="400" y="570" width="80" height="30" as="geometry" />
        </mxCell>
        <mxCell id="GYPpSZBRfct1Y0kYMT_Y-77" value="Date" style="rounded=0;whiteSpace=wrap;html=1;" parent="1" vertex="1">
          <mxGeometry x="480" y="570" width="80" height="30" as="geometry" />
        </mxCell>
        <mxCell id="GYPpSZBRfct1Y0kYMT_Y-86" value="Weight" style="rounded=0;whiteSpace=wrap;html=1;" parent="1" vertex="1">
          <mxGeometry x="480" y="250" width="80" height="30" as="geometry" />
        </mxCell>
        <mxCell id="GYPpSZBRfct1Y0kYMT_Y-87" value="Height" style="rounded=0;whiteSpace=wrap;html=1;" parent="1" vertex="1">
          <mxGeometry x="560" y="250" width="80" height="30" as="geometry" />
        </mxCell>
        <mxCell id="GYPpSZBRfct1Y0kYMT_Y-88" value="Goals" style="rounded=0;whiteSpace=wrap;html=1;" parent="1" vertex="1">
          <mxGeometry x="720" y="250" width="80" height="30" as="geometry" />
        </mxCell>
        <mxCell id="GYPpSZBRfct1Y0kYMT_Y-89" value="NoMatches" style="rounded=0;whiteSpace=wrap;html=1;" parent="1" vertex="1">
          <mxGeometry x="800" y="250" width="80" height="30" as="geometry" />
        </mxCell>
        <mxCell id="GYPpSZBRfct1Y0kYMT_Y-90" value="Condition" style="rounded=0;whiteSpace=wrap;html=1;" parent="1" vertex="1">
          <mxGeometry x="640" y="250" width="80" height="30" as="geometry" />
        </mxCell>
        <mxCell id="GYPpSZBRfct1Y0kYMT_Y-91" value="Penalty cards" style="rounded=0;whiteSpace=wrap;html=1;" parent="1" vertex="1">
          <mxGeometry x="880" y="250" width="80" height="30" as="geometry" />
        </mxCell>
        <mxCell id="GYPpSZBRfct1Y0kYMT_Y-92" value="Bid amount" style="rounded=0;whiteSpace=wrap;html=1;" parent="1" vertex="1">
          <mxGeometry x="960" y="250" width="80" height="30" as="geometry" />
        </mxCell>
        <mxCell id="GYPpSZBRfct1Y0kYMT_Y-93" value="PID" style="rounded=0;whiteSpace=wrap;html=1;fontStyle=4" parent="1" vertex="1">
          <mxGeometry x="160" y="650" width="80" height="30" as="geometry" />
        </mxCell>
        <mxCell id="GYPpSZBRfct1Y0kYMT_Y-94" value="GATHERS" style="rounded=0;whiteSpace=wrap;html=1;fontStyle=1" parent="1" vertex="1">
          <mxGeometry x="-80" y="650" width="120" height="30" as="geometry" />
        </mxCell>
        <mxCell id="GYPpSZBRfct1Y0kYMT_Y-95" value="&lt;u&gt;TID&lt;/u&gt;" style="rounded=0;whiteSpace=wrap;html=1;" parent="1" vertex="1">
          <mxGeometry x="240" y="650" width="80" height="30" as="geometry" />
        </mxCell>
        <mxCell id="GYPpSZBRfct1Y0kYMT_Y-96" value="Date" style="rounded=0;whiteSpace=wrap;html=1;" parent="1" vertex="1">
          <mxGeometry x="400" y="650" width="80" height="30" as="geometry" />
        </mxCell>
        <mxCell id="GYPpSZBRfct1Y0kYMT_Y-97" value="Location" style="rounded=0;whiteSpace=wrap;html=1;" parent="1" vertex="1">
          <mxGeometry x="480" y="650" width="80" height="30" as="geometry" />
        </mxCell>
        <mxCell id="GYPpSZBRfct1Y0kYMT_Y-98" value="" style="endArrow=none;html=1;exitX=0;exitY=0.75;exitDx=0;exitDy=0;entryX=1;entryY=0.75;entryDx=0;entryDy=0;" parent="1" source="GYPpSZBRfct1Y0kYMT_Y-93" target="GYPpSZBRfct1Y0kYMT_Y-95" edge="1">
          <mxGeometry width="50" height="50" relative="1" as="geometry">
            <mxPoint x="880" y="510" as="sourcePoint" />
            <mxPoint x="930" y="460" as="targetPoint" />
          </mxGeometry>
        </mxCell>
        <mxCell id="GYPpSZBRfct1Y0kYMT_Y-99" value="CID" style="rounded=0;whiteSpace=wrap;html=1;fontStyle=4" parent="1" vertex="1">
          <mxGeometry x="640" y="410" width="80" height="30" as="geometry" />
        </mxCell>
        <mxCell id="GYPpSZBRfct1Y0kYMT_Y-100" value="LID" style="rounded=0;whiteSpace=wrap;html=1;fontStyle=4" parent="1" vertex="1">
          <mxGeometry x="160" y="570" width="80" height="30" as="geometry" />
        </mxCell>
        <mxCell id="GYPpSZBRfct1Y0kYMT_Y-101" value="" style="endArrow=none;html=1;exitX=0;exitY=0.75;exitDx=0;exitDy=0;entryX=0;entryY=0.75;entryDx=0;entryDy=0;" parent="1" source="GYPpSZBRfct1Y0kYMT_Y-100" target="GYPpSZBRfct1Y0kYMT_Y-75" edge="1">
          <mxGeometry width="50" height="50" relative="1" as="geometry">
            <mxPoint x="169.99999999999977" y="682.5" as="sourcePoint" />
            <mxPoint x="330" y="682.5" as="targetPoint" />
          </mxGeometry>
        </mxCell>
        <mxCell id="GYPpSZBRfct1Y0kYMT_Y-103" value="TID" style="rounded=0;whiteSpace=wrap;html=1;fontStyle=4" parent="1" vertex="1">
          <mxGeometry x="160" y="730" width="80" height="30" as="geometry" />
        </mxCell>
        <mxCell id="GYPpSZBRfct1Y0kYMT_Y-104" value="TAKES PART IN" style="rounded=0;whiteSpace=wrap;html=1;fontStyle=1" parent="1" vertex="1">
          <mxGeometry x="-80" y="730" width="120" height="30" as="geometry" />
        </mxCell>
        <mxCell id="GYPpSZBRfct1Y0kYMT_Y-105" value="&lt;u&gt;MID&lt;/u&gt;" style="rounded=0;whiteSpace=wrap;html=1;" parent="1" vertex="1">
          <mxGeometry x="240" y="730" width="80" height="30" as="geometry" />
        </mxCell>
        <mxCell id="GYPpSZBRfct1Y0kYMT_Y-109" value="PID" style="rounded=0;whiteSpace=wrap;html=1;fontStyle=4" parent="1" vertex="1">
          <mxGeometry x="320" y="730" width="80" height="30" as="geometry" />
        </mxCell>
        <mxCell id="GYPpSZBRfct1Y0kYMT_Y-110" value="" style="endArrow=none;html=1;exitX=0;exitY=0.75;exitDx=0;exitDy=0;entryX=1;entryY=0.75;entryDx=0;entryDy=0;" parent="1" edge="1">
          <mxGeometry width="50" height="50" relative="1" as="geometry">
            <mxPoint x="159.99999999999977" y="752.5" as="sourcePoint" />
            <mxPoint x="400" y="752.5" as="targetPoint" />
          </mxGeometry>
        </mxCell>
        <mxCell id="3JW1lvqE3K4fnnA5thRs-1" value="" style="endArrow=none;html=1;" parent="1" edge="1">
          <mxGeometry width="50" height="50" relative="1" as="geometry">
            <mxPoint x="200" y="223" as="sourcePoint" />
            <mxPoint x="520" y="223" as="targetPoint" />
          </mxGeometry>
        </mxCell>
        <mxCell id="3JW1lvqE3K4fnnA5thRs-3" value="" style="endArrow=none;html=1;" parent="1" edge="1">
          <mxGeometry width="50" height="50" relative="1" as="geometry">
            <mxPoint x="200" y="306" as="sourcePoint" />
            <mxPoint x="1000" y="306" as="targetPoint" />
          </mxGeometry>
        </mxCell>
        <mxCell id="3JW1lvqE3K4fnnA5thRs-4" value="" style="endArrow=none;html=1;" parent="1" edge="1">
          <mxGeometry width="50" height="50" relative="1" as="geometry">
            <mxPoint x="200" y="386" as="sourcePoint" />
            <mxPoint x="520" y="386" as="targetPoint" />
          </mxGeometry>
        </mxCell>
        <mxCell id="3JW1lvqE3K4fnnA5thRs-5" value="" style="endArrow=none;html=1;" parent="1" edge="1">
          <mxGeometry width="50" height="50" relative="1" as="geometry">
            <mxPoint x="200" y="464" as="sourcePoint" />
            <mxPoint x="680" y="464" as="targetPoint" />
          </mxGeometry>
        </mxCell>
        <mxCell id="3JW1lvqE3K4fnnA5thRs-6" value="" style="endArrow=none;html=1;" parent="1" edge="1">
          <mxGeometry width="50" height="50" relative="1" as="geometry">
            <mxPoint x="200" y="546" as="sourcePoint" />
            <mxPoint x="360" y="546" as="targetPoint" />
          </mxGeometry>
        </mxCell>
        <mxCell id="3JW1lvqE3K4fnnA5thRs-7" value="" style="endArrow=none;html=1;" parent="1" edge="1">
          <mxGeometry width="50" height="50" relative="1" as="geometry">
            <mxPoint x="200" y="625" as="sourcePoint" />
            <mxPoint x="520" y="625" as="targetPoint" />
          </mxGeometry>
        </mxCell>
        <mxCell id="3JW1lvqE3K4fnnA5thRs-8" value="" style="endArrow=none;html=1;" parent="1" edge="1">
          <mxGeometry width="50" height="50" relative="1" as="geometry">
            <mxPoint x="200" y="706" as="sourcePoint" />
            <mxPoint x="520" y="706" as="targetPoint" />
          </mxGeometry>
        </mxCell>
        <mxCell id="3JW1lvqE3K4fnnA5thRs-9" value="" style="endArrow=none;html=1;" parent="1" edge="1">
          <mxGeometry width="50" height="50" relative="1" as="geometry">
            <mxPoint x="200" y="782" as="sourcePoint" />
            <mxPoint x="360" y="782" as="targetPoint" />
          </mxGeometry>
        </mxCell>
        <mxCell id="3JW1lvqE3K4fnnA5thRs-10" value="" style="endArrow=none;html=1;entryX=0.5;entryY=1;entryDx=0;entryDy=0;" parent="1" edge="1">
          <mxGeometry width="50" height="50" relative="1" as="geometry">
            <mxPoint x="200" y="222" as="sourcePoint" />
            <mxPoint x="199.99999999999955" y="202" as="targetPoint" />
          </mxGeometry>
        </mxCell>
        <mxCell id="3JW1lvqE3K4fnnA5thRs-11" value="" style="endArrow=classic;html=1;entryX=0.5;entryY=1;entryDx=0;entryDy=0;" parent="1" edge="1">
          <mxGeometry width="50" height="50" relative="1" as="geometry">
            <mxPoint x="280" y="221" as="sourcePoint" />
            <mxPoint x="279.99999999999955" y="201" as="targetPoint" />
          </mxGeometry>
        </mxCell>
        <mxCell id="3JW1lvqE3K4fnnA5thRs-12" value="" style="endArrow=classic;html=1;entryX=0.5;entryY=1;entryDx=0;entryDy=0;" parent="1" edge="1">
          <mxGeometry width="50" height="50" relative="1" as="geometry">
            <mxPoint x="360" y="221" as="sourcePoint" />
            <mxPoint x="359.99999999999955" y="201" as="targetPoint" />
          </mxGeometry>
        </mxCell>
        <mxCell id="3JW1lvqE3K4fnnA5thRs-13" value="" style="endArrow=classic;html=1;entryX=0.5;entryY=1;entryDx=0;entryDy=0;" parent="1" edge="1">
          <mxGeometry width="50" height="50" relative="1" as="geometry">
            <mxPoint x="440" y="221" as="sourcePoint" />
            <mxPoint x="439.99999999999955" y="201" as="targetPoint" />
          </mxGeometry>
        </mxCell>
        <mxCell id="3JW1lvqE3K4fnnA5thRs-16" value="" style="endArrow=classic;html=1;entryX=0.5;entryY=1;entryDx=0;entryDy=0;" parent="1" edge="1">
          <mxGeometry width="50" height="50" relative="1" as="geometry">
            <mxPoint x="519.4099999999995" y="220" as="sourcePoint" />
            <mxPoint x="519.4099999999995" y="200" as="targetPoint" />
          </mxGeometry>
        </mxCell>
        <mxCell id="3JW1lvqE3K4fnnA5thRs-22" value="" style="endArrow=none;html=1;entryX=0.5;entryY=1;entryDx=0;entryDy=0;" parent="1" edge="1">
          <mxGeometry width="50" height="50" relative="1" as="geometry">
            <mxPoint x="201" y="306" as="sourcePoint" />
            <mxPoint x="201" y="286" as="targetPoint" />
          </mxGeometry>
        </mxCell>
        <mxCell id="3JW1lvqE3K4fnnA5thRs-23" value="" style="endArrow=classic;html=1;entryX=0.5;entryY=1;entryDx=0;entryDy=0;" parent="1" edge="1">
          <mxGeometry width="50" height="50" relative="1" as="geometry">
            <mxPoint x="281" y="305" as="sourcePoint" />
            <mxPoint x="281" y="285" as="targetPoint" />
          </mxGeometry>
        </mxCell>
        <mxCell id="3JW1lvqE3K4fnnA5thRs-24" value="" style="endArrow=classic;html=1;entryX=0.5;entryY=1;entryDx=0;entryDy=0;" parent="1" edge="1">
          <mxGeometry width="50" height="50" relative="1" as="geometry">
            <mxPoint x="361" y="305" as="sourcePoint" />
            <mxPoint x="361" y="285" as="targetPoint" />
          </mxGeometry>
        </mxCell>
        <mxCell id="3JW1lvqE3K4fnnA5thRs-25" value="" style="endArrow=classic;html=1;entryX=0.5;entryY=1;entryDx=0;entryDy=0;" parent="1" edge="1">
          <mxGeometry width="50" height="50" relative="1" as="geometry">
            <mxPoint x="441" y="305" as="sourcePoint" />
            <mxPoint x="441" y="285" as="targetPoint" />
          </mxGeometry>
        </mxCell>
        <mxCell id="3JW1lvqE3K4fnnA5thRs-26" value="" style="endArrow=classic;html=1;entryX=0.5;entryY=1;entryDx=0;entryDy=0;" parent="1" edge="1">
          <mxGeometry width="50" height="50" relative="1" as="geometry">
            <mxPoint x="520.4099999999999" y="304" as="sourcePoint" />
            <mxPoint x="520.4099999999999" y="284" as="targetPoint" />
          </mxGeometry>
        </mxCell>
        <mxCell id="3JW1lvqE3K4fnnA5thRs-27" value="" style="endArrow=classic;html=1;entryX=0.5;entryY=1;entryDx=0;entryDy=0;" parent="1" edge="1">
          <mxGeometry width="50" height="50" relative="1" as="geometry">
            <mxPoint x="601" y="304" as="sourcePoint" />
            <mxPoint x="601" y="284" as="targetPoint" />
          </mxGeometry>
        </mxCell>
        <mxCell id="3JW1lvqE3K4fnnA5thRs-28" value="" style="endArrow=classic;html=1;entryX=0.5;entryY=1;entryDx=0;entryDy=0;" parent="1" edge="1">
          <mxGeometry width="50" height="50" relative="1" as="geometry">
            <mxPoint x="681" y="304" as="sourcePoint" />
            <mxPoint x="681" y="284" as="targetPoint" />
          </mxGeometry>
        </mxCell>
        <mxCell id="3JW1lvqE3K4fnnA5thRs-29" value="" style="endArrow=classic;html=1;entryX=0.5;entryY=1;entryDx=0;entryDy=0;" parent="1" edge="1">
          <mxGeometry width="50" height="50" relative="1" as="geometry">
            <mxPoint x="761" y="304" as="sourcePoint" />
            <mxPoint x="761" y="284" as="targetPoint" />
          </mxGeometry>
        </mxCell>
        <mxCell id="3JW1lvqE3K4fnnA5thRs-30" value="" style="endArrow=classic;html=1;entryX=0.5;entryY=1;entryDx=0;entryDy=0;" parent="1" edge="1">
          <mxGeometry width="50" height="50" relative="1" as="geometry">
            <mxPoint x="840.4099999999999" y="303" as="sourcePoint" />
            <mxPoint x="840.4099999999999" y="283" as="targetPoint" />
          </mxGeometry>
        </mxCell>
        <mxCell id="3JW1lvqE3K4fnnA5thRs-31" value="" style="endArrow=classic;html=1;entryX=0.5;entryY=1;entryDx=0;entryDy=0;" parent="1" edge="1">
          <mxGeometry width="50" height="50" relative="1" as="geometry">
            <mxPoint x="918" y="304" as="sourcePoint" />
            <mxPoint x="918" y="284" as="targetPoint" />
          </mxGeometry>
        </mxCell>
        <mxCell id="3JW1lvqE3K4fnnA5thRs-32" value="" style="endArrow=classic;html=1;entryX=0.5;entryY=1;entryDx=0;entryDy=0;" parent="1" edge="1">
          <mxGeometry width="50" height="50" relative="1" as="geometry">
            <mxPoint x="998" y="304" as="sourcePoint" />
            <mxPoint x="998" y="284" as="targetPoint" />
          </mxGeometry>
        </mxCell>
        <mxCell id="3JW1lvqE3K4fnnA5thRs-33" value="" style="endArrow=none;html=1;entryX=0.5;entryY=1;entryDx=0;entryDy=0;" parent="1" edge="1">
          <mxGeometry width="50" height="50" relative="1" as="geometry">
            <mxPoint x="200" y="385" as="sourcePoint" />
            <mxPoint x="200" y="365" as="targetPoint" />
          </mxGeometry>
        </mxCell>
        <mxCell id="3JW1lvqE3K4fnnA5thRs-34" value="" style="endArrow=classic;html=1;entryX=0.5;entryY=1;entryDx=0;entryDy=0;" parent="1" edge="1">
          <mxGeometry width="50" height="50" relative="1" as="geometry">
            <mxPoint x="280" y="384" as="sourcePoint" />
            <mxPoint x="280" y="364" as="targetPoint" />
          </mxGeometry>
        </mxCell>
        <mxCell id="3JW1lvqE3K4fnnA5thRs-35" value="" style="endArrow=classic;html=1;entryX=0.5;entryY=1;entryDx=0;entryDy=0;" parent="1" edge="1">
          <mxGeometry width="50" height="50" relative="1" as="geometry">
            <mxPoint x="360" y="384" as="sourcePoint" />
            <mxPoint x="360" y="364" as="targetPoint" />
          </mxGeometry>
        </mxCell>
        <mxCell id="3JW1lvqE3K4fnnA5thRs-36" value="" style="endArrow=none;html=1;entryX=0.5;entryY=1;entryDx=0;entryDy=0;" parent="1" edge="1">
          <mxGeometry width="50" height="50" relative="1" as="geometry">
            <mxPoint x="200" y="464" as="sourcePoint" />
            <mxPoint x="200" y="444" as="targetPoint" />
          </mxGeometry>
        </mxCell>
        <mxCell id="3JW1lvqE3K4fnnA5thRs-37" value="" style="endArrow=classic;html=1;entryX=0.5;entryY=1;entryDx=0;entryDy=0;" parent="1" edge="1">
          <mxGeometry width="50" height="50" relative="1" as="geometry">
            <mxPoint x="280" y="463" as="sourcePoint" />
            <mxPoint x="280" y="443" as="targetPoint" />
          </mxGeometry>
        </mxCell>
        <mxCell id="3JW1lvqE3K4fnnA5thRs-38" value="" style="endArrow=classic;html=1;entryX=0.5;entryY=1;entryDx=0;entryDy=0;" parent="1" edge="1">
          <mxGeometry width="50" height="50" relative="1" as="geometry">
            <mxPoint x="360" y="463" as="sourcePoint" />
            <mxPoint x="360" y="443" as="targetPoint" />
          </mxGeometry>
        </mxCell>
        <mxCell id="3JW1lvqE3K4fnnA5thRs-39" value="" style="endArrow=classic;html=1;entryX=0.5;entryY=1;entryDx=0;entryDy=0;" parent="1" edge="1">
          <mxGeometry width="50" height="50" relative="1" as="geometry">
            <mxPoint x="440" y="463" as="sourcePoint" />
            <mxPoint x="440" y="443" as="targetPoint" />
          </mxGeometry>
        </mxCell>
        <mxCell id="3JW1lvqE3K4fnnA5thRs-40" value="" style="endArrow=classic;html=1;entryX=0.5;entryY=1;entryDx=0;entryDy=0;" parent="1" edge="1">
          <mxGeometry width="50" height="50" relative="1" as="geometry">
            <mxPoint x="519.4100000000001" y="462" as="sourcePoint" />
            <mxPoint x="519.4100000000001" y="442" as="targetPoint" />
          </mxGeometry>
        </mxCell>
        <mxCell id="3JW1lvqE3K4fnnA5thRs-41" value="" style="endArrow=classic;html=1;entryX=0.5;entryY=1;entryDx=0;entryDy=0;" parent="1" edge="1">
          <mxGeometry width="50" height="50" relative="1" as="geometry">
            <mxPoint x="600" y="462" as="sourcePoint" />
            <mxPoint x="600" y="442" as="targetPoint" />
          </mxGeometry>
        </mxCell>
        <mxCell id="3JW1lvqE3K4fnnA5thRs-43" value="" style="endArrow=none;html=1;entryX=0.5;entryY=1;entryDx=0;entryDy=0;" parent="1" edge="1">
          <mxGeometry width="50" height="50" relative="1" as="geometry">
            <mxPoint x="680" y="464" as="sourcePoint" />
            <mxPoint x="680" y="444" as="targetPoint" />
          </mxGeometry>
        </mxCell>
        <mxCell id="3JW1lvqE3K4fnnA5thRs-44" value="" style="endArrow=none;html=1;entryX=0.5;entryY=1;entryDx=0;entryDy=0;" parent="1" edge="1">
          <mxGeometry width="50" height="50" relative="1" as="geometry">
            <mxPoint x="200" y="545" as="sourcePoint" />
            <mxPoint x="200" y="525" as="targetPoint" />
          </mxGeometry>
        </mxCell>
        <mxCell id="3JW1lvqE3K4fnnA5thRs-45" value="" style="endArrow=classic;html=1;entryX=0.5;entryY=1;entryDx=0;entryDy=0;" parent="1" edge="1">
          <mxGeometry width="50" height="50" relative="1" as="geometry">
            <mxPoint x="280" y="544" as="sourcePoint" />
            <mxPoint x="280" y="524" as="targetPoint" />
          </mxGeometry>
        </mxCell>
        <mxCell id="3JW1lvqE3K4fnnA5thRs-46" value="" style="endArrow=classic;html=1;entryX=0.5;entryY=1;entryDx=0;entryDy=0;" parent="1" edge="1">
          <mxGeometry width="50" height="50" relative="1" as="geometry">
            <mxPoint x="360" y="544" as="sourcePoint" />
            <mxPoint x="360" y="524" as="targetPoint" />
          </mxGeometry>
        </mxCell>
        <mxCell id="3JW1lvqE3K4fnnA5thRs-47" value="" style="endArrow=none;html=1;entryX=0.5;entryY=1;entryDx=0;entryDy=0;" parent="1" edge="1">
          <mxGeometry width="50" height="50" relative="1" as="geometry">
            <mxPoint x="200" y="624" as="sourcePoint" />
            <mxPoint x="200" y="604" as="targetPoint" />
          </mxGeometry>
        </mxCell>
        <mxCell id="3JW1lvqE3K4fnnA5thRs-49" value="" style="endArrow=classic;html=1;entryX=0.5;entryY=1;entryDx=0;entryDy=0;" parent="1" edge="1">
          <mxGeometry width="50" height="50" relative="1" as="geometry">
            <mxPoint x="360" y="623" as="sourcePoint" />
            <mxPoint x="360" y="603" as="targetPoint" />
          </mxGeometry>
        </mxCell>
        <mxCell id="3JW1lvqE3K4fnnA5thRs-50" value="" style="endArrow=classic;html=1;entryX=0.5;entryY=1;entryDx=0;entryDy=0;" parent="1" edge="1">
          <mxGeometry width="50" height="50" relative="1" as="geometry">
            <mxPoint x="440" y="623" as="sourcePoint" />
            <mxPoint x="440" y="603" as="targetPoint" />
          </mxGeometry>
        </mxCell>
        <mxCell id="3JW1lvqE3K4fnnA5thRs-51" value="" style="endArrow=classic;html=1;entryX=0.5;entryY=1;entryDx=0;entryDy=0;" parent="1" edge="1">
          <mxGeometry width="50" height="50" relative="1" as="geometry">
            <mxPoint x="520" y="622" as="sourcePoint" />
            <mxPoint x="520" y="602" as="targetPoint" />
          </mxGeometry>
        </mxCell>
        <mxCell id="3JW1lvqE3K4fnnA5thRs-52" value="" style="endArrow=none;html=1;entryX=0.5;entryY=1;entryDx=0;entryDy=0;" parent="1" edge="1">
          <mxGeometry width="50" height="50" relative="1" as="geometry">
            <mxPoint x="280" y="623" as="sourcePoint" />
            <mxPoint x="280" y="603" as="targetPoint" />
          </mxGeometry>
        </mxCell>
        <mxCell id="3JW1lvqE3K4fnnA5thRs-53" value="" style="endArrow=none;html=1;entryX=0.5;entryY=1;entryDx=0;entryDy=0;" parent="1" edge="1">
          <mxGeometry width="50" height="50" relative="1" as="geometry">
            <mxPoint x="200" y="705" as="sourcePoint" />
            <mxPoint x="200" y="685" as="targetPoint" />
          </mxGeometry>
        </mxCell>
        <mxCell id="3JW1lvqE3K4fnnA5thRs-54" value="" style="endArrow=classic;html=1;entryX=0.5;entryY=1;entryDx=0;entryDy=0;" parent="1" edge="1">
          <mxGeometry width="50" height="50" relative="1" as="geometry">
            <mxPoint x="360" y="704" as="sourcePoint" />
            <mxPoint x="360" y="684" as="targetPoint" />
          </mxGeometry>
        </mxCell>
        <mxCell id="3JW1lvqE3K4fnnA5thRs-55" value="" style="endArrow=classic;html=1;entryX=0.5;entryY=1;entryDx=0;entryDy=0;" parent="1" edge="1">
          <mxGeometry width="50" height="50" relative="1" as="geometry">
            <mxPoint x="440" y="704" as="sourcePoint" />
            <mxPoint x="440" y="684" as="targetPoint" />
          </mxGeometry>
        </mxCell>
        <mxCell id="3JW1lvqE3K4fnnA5thRs-56" value="" style="endArrow=none;html=1;entryX=0.5;entryY=1;entryDx=0;entryDy=0;" parent="1" edge="1">
          <mxGeometry width="50" height="50" relative="1" as="geometry">
            <mxPoint x="280" y="704" as="sourcePoint" />
            <mxPoint x="280" y="684" as="targetPoint" />
          </mxGeometry>
        </mxCell>
        <mxCell id="3JW1lvqE3K4fnnA5thRs-57" value="" style="endArrow=classic;html=1;entryX=0.5;entryY=1;entryDx=0;entryDy=0;" parent="1" edge="1">
          <mxGeometry width="50" height="50" relative="1" as="geometry">
            <mxPoint x="199" y="781" as="sourcePoint" />
            <mxPoint x="199" y="761" as="targetPoint" />
          </mxGeometry>
        </mxCell>
        <mxCell id="3JW1lvqE3K4fnnA5thRs-58" value="" style="endArrow=classic;html=1;entryX=0.5;entryY=1;entryDx=0;entryDy=0;" parent="1" edge="1">
          <mxGeometry width="50" height="50" relative="1" as="geometry">
            <mxPoint x="279" y="781" as="sourcePoint" />
            <mxPoint x="279" y="761" as="targetPoint" />
          </mxGeometry>
        </mxCell>
        <mxCell id="3JW1lvqE3K4fnnA5thRs-59" value="" style="endArrow=classic;html=1;entryX=0.5;entryY=1;entryDx=0;entryDy=0;" parent="1" edge="1">
          <mxGeometry width="50" height="50" relative="1" as="geometry">
            <mxPoint x="359" y="780" as="sourcePoint" />
            <mxPoint x="359" y="760" as="targetPoint" />
          </mxGeometry>
        </mxCell>
        <mxCell id="EiDUby6O1rjYrYLRw2Ng-1" value="NoMatches" style="rounded=0;whiteSpace=wrap;html=1;" vertex="1" parent="1">
          <mxGeometry x="400" y="330" width="80" height="30" as="geometry" />
        </mxCell>
        <mxCell id="EiDUby6O1rjYrYLRw2Ng-2" value="Bid amount" style="rounded=0;whiteSpace=wrap;html=1;" vertex="1" parent="1">
          <mxGeometry x="480" y="330" width="80" height="30" as="geometry" />
        </mxCell>
        <mxCell id="EiDUby6O1rjYrYLRw2Ng-3" value="" style="endArrow=classic;html=1;entryX=0.5;entryY=1;entryDx=0;entryDy=0;" edge="1" parent="1">
          <mxGeometry width="50" height="50" relative="1" as="geometry">
            <mxPoint x="439" y="384" as="sourcePoint" />
            <mxPoint x="439" y="364" as="targetPoint" />
          </mxGeometry>
        </mxCell>
        <mxCell id="EiDUby6O1rjYrYLRw2Ng-4" value="" style="endArrow=classic;html=1;entryX=0.5;entryY=1;entryDx=0;entryDy=0;" edge="1" parent="1">
          <mxGeometry width="50" height="50" relative="1" as="geometry">
            <mxPoint x="519" y="384" as="sourcePoint" />
            <mxPoint x="519" y="364" as="targetPoint" />
          </mxGeometry>
        </mxCell>
        <mxCell id="EiDUby6O1rjYrYLRw2Ng-5" value="Name" style="rounded=0;whiteSpace=wrap;html=1;" vertex="1" parent="1">
          <mxGeometry x="320" y="650" width="80" height="30" as="geometry" />
        </mxCell>
        <mxCell id="EiDUby6O1rjYrYLRw2Ng-6" value="" style="endArrow=classic;html=1;entryX=0.5;entryY=1;entryDx=0;entryDy=0;" edge="1" parent="1">
          <mxGeometry width="50" height="50" relative="1" as="geometry">
            <mxPoint x="520" y="703" as="sourcePoint" />
            <mxPoint x="520" y="683" as="targetPoint" />
          </mxGeometry>
        </mxCell>
      </root>
    </mxGraphModel>
  </diagram>
</mxfile>
